<svg xmlns="http://www.w3.org/2000/svg" viewBox="1.51 1.51 20.98 20.98" fill="currentColor">
  <path fill-rule="evenodd" d="M3.50 9.72 L4.38 7.60 L5.78 5.78 L7.60 4.38 L9.72 3.50 L12.00 3.20 L14.28 3.50 L16.40 4.38 L18.22 5.78 L19.62 7.60 L21.18 6.70 L20.38 11.32 L15.98 9.70 L17.54 8.80 L16.53 7.47 L15.20 6.46 L13.66 5.82 L12.00 5.60 L10.34 5.82 L8.80 6.46 L7.47 7.47 L6.46 8.80 L5.82 10.34 Z"/>
  <path fill-rule="evenodd" d="M20.50 14.28 L19.62 16.40 L18.22 18.22 L16.40 19.62 L14.28 20.50 L12.00 20.80 L9.72 20.50 L7.60 19.62 L5.78 18.22 L4.38 16.40 L2.82 17.30 L3.62 12.68 L8.02 14.30 L6.46 15.20 L7.47 16.53 L8.80 17.54 L10.34 18.18 L12.00 18.40 L13.66 18.18 L15.20 17.54 L16.53 16.53 L17.54 15.20 L18.18 13.66 Z"/>
</svg>
